<svg width="19" height="14" viewBox="0 0 19 14" fill="none" xmlns="http://www.w3.org/2000/svg">
<path fill-rule="evenodd" clip-rule="evenodd" d="M3.36396 12.6776C0.239765 9.55341 0.239765 4.48809 3.36396 1.3639C3.55922 1.16864 3.55922 0.852054 3.36396 0.656792C3.1687 0.46153 2.85211 0.46153 2.65685 0.656792C-0.857867 4.17151 -0.857867 9.87 2.65685 13.3847C2.85211 13.58 3.1687 13.58 3.36396 13.3847C3.55922 13.1895 3.55922 12.8729 3.36396 12.6776ZM15.3848 0.656792C15.1895 0.46153 14.8729 0.46153 14.6777 0.656792C14.4824 0.852054 14.4824 1.16864 14.6777 1.3639C17.8019 4.48809 17.8019 9.55341 14.6777 12.6776C14.4824 12.8729 14.4824 13.1895 14.6777 13.3847C14.8729 13.58 15.1895 13.58 15.3848 13.3847C18.8995 9.87 18.8995 4.17151 15.3848 0.656792ZM5.48531 3.48522C3.53269 5.43784 3.53269 8.60367 5.48531 10.5563C5.68058 10.7515 5.68058 11.0681 5.48531 11.2634C5.29005 11.4587 4.97347 11.4587 4.77821 11.2634C2.43506 8.92025 2.43506 5.12126 4.77821 2.77811C4.97347 2.58285 5.29005 2.58285 5.48531 2.77811C5.68058 2.97337 5.68058 3.28996 5.48531 3.48522ZM12.5564 2.77811C12.7516 2.58285 13.0682 2.58285 13.2635 2.77811C15.6066 5.12126 15.6066 8.92025 13.2635 11.2634C13.0682 11.4587 12.7516 11.4587 12.5564 11.2634C12.3611 11.0681 12.3611 10.7515 12.5564 10.5563C14.509 8.60367 14.509 5.43784 12.5564 3.48522C12.3611 3.28996 12.3611 2.97337 12.5564 2.77811ZM7.60655 5.60654C6.8255 6.38759 6.8255 7.65392 7.60655 8.43497C8.3876 9.21601 9.65393 9.21601 10.435 8.43497C11.216 7.65392 11.216 6.38759 10.435 5.60654C9.65393 4.82549 8.3876 4.82549 7.60655 5.60654ZM6.89944 9.14207C5.72787 7.9705 5.72787 6.07101 6.89944 4.89943C8.07101 3.72786 9.97051 3.72786 11.1421 4.89943C12.3137 6.07101 12.3137 7.9705 11.1421 9.14207C9.97051 10.3136 8.07101 10.3136 6.89944 9.14207Z" fill="white"/>
</svg>
